<?xml version="1.0" standalone="no"?>
<!DOCTYPE svg PUBLIC "-//W3C//DTD SVG 20010904//EN"
 "http://www.w3.org/TR/2001/REC-SVG-20010904/DTD/svg10.dtd">
<svg version="1.0" xmlns="http://www.w3.org/2000/svg"
 width="500.000000pt" height="500.000000pt" viewBox="0 0 500.000000 500.000000"
 preserveAspectRatio="xMidYMid meet">
<metadata>
Created by potrace 1.14, written by Peter Selinger 2001-2017
</metadata>
<g transform="translate(0.000000,500.000000) scale(0.100000,-0.100000)"
fill="#000000" stroke="none">
<path d="M0 2500 l0 -2500 2500 0 2500 0 0 2500 0 2500 -2500 0 -2500 0 0
-2500z m3830 155 l0 -265 -50 0 -50 0 2 252 3 252 45 12 c25 7 46 12 48 13 1
1 2 -118 2 -264z m-2982 138 l3 -103 109 0 110 0 1 83 c2 132 -3 122 57 125
l52 3 0 -255 0 -256 -56 0 c-51 0 -55 2 -54 23 1 12 2 57 1 100 l-1 77 -110 0
-110 0 0 -100 0 -100 -55 0 -55 0 0 256 0 255 53 -3 52 -3 3 -102z m2082 -3
l0 -100 115 0 115 0 0 100 0 100 50 0 50 0 0 -250 0 -250 -50 0 -49 0 -3 101
-3 100 -113 2 -112 2 0 -102 0 -103 -55 0 -55 0 0 250 0 250 55 0 55 0 0 -100z
m-1383 -56 c130 -103 99 -291 -56 -343 -195 -65 -350 178 -205 323 44 44 81
57 156 53 57 -2 72 -7 105 -33z m223 -96 c4 -102 9 -132 22 -148 21 -24 74
-27 106 -4 21 14 22 22 22 150 l0 134 50 0 50 0 0 -190 0 -190 -49 0 c-27 0
-51 5 -53 10 -2 7 -18 5 -43 -6 -71 -29 -146 -5 -185 59 -17 28 -20 51 -20
175 l0 143 48 -3 47 -3 5 -127z m520 122 c56 -15 75 -33 62 -56 -27 -47 -27
-47 -61 -30 -36 19 -117 24 -133 8 -23 -23 -4 -47 47 -56 143 -25 175 -47 175
-120 0 -36 -6 -50 -29 -74 -38 -38 -106 -57 -172 -48 -51 7 -129 40 -129 54 1
4 11 20 24 35 l22 28 45 -20 c52 -24 107 -27 135 -7 33 25 7 49 -69 63 -76 14
-122 35 -137 62 -16 30 -12 93 8 118 36 46 131 66 212 43z m404 -24 c45 -34
77 -95 79 -149 l2 -42 -137 -3 c-76 -1 -138 -7 -138 -11 0 -5 14 -21 31 -35
34 -29 89 -35 134 -14 23 10 29 9 57 -19 l31 -31 -42 -21 c-114 -59 -254 -18
-297 86 -30 71 -9 178 43 225 61 55 174 62 237 14z m914 2 c45 -30 73 -83 80
-150 l5 -48 -137 0 c-88 0 -136 -4 -136 -10 0 -6 11 -22 25 -35 19 -19 35 -25
70 -25 26 0 55 5 66 11 16 8 26 5 49 -13 16 -13 29 -26 29 -30 1 -4 -18 -18
-41 -30 -86 -45 -217 -21 -266 49 -75 108 -44 233 73 297 45 25 133 17 183
-16z m378 18 c5 -12 11 -12 42 1 84 35 191 -7 232 -92 47 -97 11 -209 -83
-258 -40 -21 -116 -25 -160 -8 l-27 11 0 -85 0 -84 58 -4 c51 -3 48 -3 -21 -5
-75 -2 -528 -20 -1517 -62 -1030 -43 -1522 -61 -1535 -57 -7 3 -16 23 -19 44
-4 21 -10 48 -13 61 l-5 22 1476 0 1476 0 0 258 c0 142 2 261 5 264 12 12 86
7 91 -6z"/>
<path d="M1359 2651 c-63 -64 -16 -181 72 -181 32 0 77 31 90 62 6 16 9 45 6
66 -13 81 -109 111 -168 53z"/>
<path d="M2529 2662 c-19 -17 -31 -33 -27 -37 10 -11 162 -8 165 2 7 20 -33
54 -68 59 -31 5 -42 1 -70 -24z"/>
<path d="M3439 2660 c-17 -16 -28 -34 -25 -38 7 -12 169 -8 173 5 2 6 -10 22
-27 37 -43 35 -83 34 -121 -4z"/>
<path d="M4044 2680 c-51 -11 -54 -16 -54 -99 0 -89 7 -100 68 -108 80 -11
142 55 122 129 -17 60 -72 92 -136 78z"/>
</g>
</svg>
